<?xml version="1.0" encoding="utf-8"?>
<!-- Generator: Adobe Illustrator 23.1.0, SVG Export Plug-In . SVG Version: 6.00 Build 0)  -->
<svg version="1.1" id="Layer_1" xmlns="http://www.w3.org/2000/svg" xmlns:xlink="http://www.w3.org/1999/xlink" x="0px" y="0px"
	 viewBox="0 0 299 299" style="enable-background:new 0 0 299 299;" xml:space="preserve">
<style type="text/css">
	.st0{fill:#0062FF;}
</style>
<g>
	<path class="st0" d="M152,77.3c-33.9,0-48.7,31.2-51.4,54.4h97.8C198.8,110.4,189.7,77.3,152,77.3z"/>
	<path class="st0" d="M149.5,1.9C68.1,1.9,2,67.9,2,149.4s66,147.5,147.5,147.5S297,230.9,297,149.4S231,1.9,149.5,1.9z
		 M229.6,155.7H100.2c0.8,45.3,29.7,64,63.2,64c24,0,38.4-4.2,51-9.5l5.7,24c-11.8,5.3-32,11.4-61.3,11.4
		c-56.7,0-90.6-37.3-90.6-92.9s32.7-99.4,86.4-99.4c60.1,0,76.1,52.9,76.1,86.8C230.8,146.9,230,152.3,229.6,155.7z"/>
</g>
</svg>
